<svg width="115" height="26" viewBox="0 0 115 26" fill="none" xmlns="http://www.w3.org/2000/svg"><path d="M74.2798 17.7733C71.8858 17.7733 70.6564 15.8127 70.6564 13.4045C70.6564 10.9964 71.8642 9.14237 74.2798 9.14237C76.7386 9.14237 77.9032 11.0817 77.9032 13.4045C77.8817 15.8553 76.6523 17.7733 74.2798 17.7733ZM50.8571 9.14237C52.259 9.14237 52.8413 9.95218 52.8413 10.6554C52.8413 12.3603 51.0943 13.1062 47.4494 13.2127C47.4494 11.103 48.6572 9.14237 50.8571 9.14237ZM35.3282 17.7733C33.0636 17.7733 32.1146 15.9405 32.1146 13.4045C32.1146 10.8899 33.0851 9.14237 35.3282 9.14237C37.6144 9.14237 38.6928 10.9538 38.6928 13.4045C38.6928 15.9619 37.5713 17.7733 35.3282 17.7733ZM16.1759 6.649H12.6388L18.5053 20.0322C17.3837 22.5043 16.7798 23.1223 16.0034 23.1223C15.1838 23.1223 14.4074 22.4617 13.8466 21.8863L12.2937 23.9321C13.3505 25.0403 14.7956 25.6796 16.2838 25.6796C18.1386 25.6796 19.5621 24.6141 20.3817 22.6961L27.154 6.62768H23.6815L20.1444 16.2176L16.1759 6.649ZM109.867 9.14237C111.592 9.14237 111.937 10.3145 111.937 13.0636V20.288H115V11.1669C115 7.88503 112.735 6.4572 110.643 6.4572C108.788 6.4572 107.085 7.60799 106.136 9.73907C105.596 7.69323 103.871 6.4572 101.865 6.4572C100.118 6.4572 98.3712 7.56536 97.4222 9.63252V6.649H94.3595V20.2666H97.4222V14.4488C97.4222 11.5079 98.9751 9.14237 101.089 9.14237C102.814 9.14237 103.138 10.3145 103.138 13.0636V20.288H106.2L106.179 14.4488C106.179 11.5079 107.753 9.14237 109.867 9.14237ZM86.9402 6.649H83.8775V20.2666H86.9402V15.0455C86.9402 11.7423 88.4068 9.50465 90.5851 9.50465C91.1459 9.50465 91.6204 9.52596 92.138 9.73907L92.6125 6.52113C92.2243 6.47851 91.8792 6.43589 91.5341 6.43589C89.3773 6.43589 87.8245 7.90634 86.9186 9.80301V6.649H86.9402ZM74.2798 6.43589C70.2251 6.43589 67.4859 9.50465 67.4859 13.3832C67.4859 17.411 70.2682 20.4158 74.2798 20.4158C78.3561 20.4158 81.1384 17.3257 81.1384 13.3832C81.1168 9.48334 78.2914 6.43589 74.2798 6.43589ZM51.0296 17.7733C49.4336 17.7733 48.2474 16.9635 47.7513 15.3225C51.8061 15.152 55.7746 14.1717 55.7746 10.6128C55.7746 8.56697 53.7472 6.4572 50.8355 6.4572C46.9102 6.4572 44.2573 9.63252 44.2573 13.4045C44.2573 17.3471 46.867 20.4371 50.7708 20.4371C53.4884 20.4371 55.2138 19.3503 56.5726 17.7733L55.0844 15.7701C53.5099 17.3684 52.5394 17.7733 51.0296 17.7733ZM35.9321 6.43589C34.3792 6.43589 32.8263 7.33094 32.2224 8.73746V6.649H29.1598V25.6157H32.2224V18.8388C32.8695 19.8191 34.3576 20.4584 35.6733 20.4584C39.7496 20.4584 41.9064 17.4536 41.9064 13.4045C41.8848 9.3981 39.7712 6.43589 35.9321 6.43589ZM14.4505 1.19341H0V4.15562H5.65079V20.2666H8.8644V4.15562H14.4505V1.19341ZM59.9803 6.649H58.147V9.37679H59.9803V20.2666H63.0429V9.37679H66.0193V6.649H63.0429V4.51791C63.0429 3.15401 63.6037 2.68517 64.8762 2.68517C65.3507 2.68517 65.7821 2.81304 66.3644 3.00483L67.0546 0.447529C66.4938 0.127865 65.3723 0 64.639 0C61.7057 0 59.9803 1.74749 59.9803 4.77364V6.649V6.649Z" fill="#262627"/></svg>